<?xml version="1.0" encoding="UTF-8" standalone="no"?>
<!-- Created with Inkscape (http://www.inkscape.org/) -->

<svg
   xmlns:dc="http://purl.org/dc/elements/1.1/"
   xmlns:cc="http://creativecommons.org/ns#"
   xmlns:rdf="http://www.w3.org/1999/02/22-rdf-syntax-ns#"
   xmlns:svg="http://www.w3.org/2000/svg"
   xmlns="http://www.w3.org/2000/svg"
   xmlns:xlink="http://www.w3.org/1999/xlink"
   xmlns:sodipodi="http://sodipodi.sourceforge.net/DTD/sodipodi-0.dtd"
   xmlns:inkscape="http://www.inkscape.org/namespaces/inkscape"
   width="500"
   height="500"
   viewBox="0 0 500.00001 500.00001"
   id="svg2"
   version="1.1"
   inkscape:version="0.91 r13725"
   sodipodi:docname="facebook.svg">
  <defs
     id="defs4">
    <linearGradient
       inkscape:collect="always"
       id="linearGradient4158">
      <stop
         style="stop-color:#1a1a1a;stop-opacity:1;"
         offset="0"
         id="stop4160" />
      <stop
         style="stop-color:#1a1a1a;stop-opacity:0;"
         offset="1"
         id="stop4162" />
    </linearGradient>
    <linearGradient
       inkscape:collect="always"
       xlink:href="#linearGradient4158"
       id="linearGradient4164"
       x1="-1898.1282"
       y1="-187.19489"
       x2="-825.17212"
       y2="912.90363"
       gradientUnits="userSpaceOnUse"
       gradientTransform="translate(1196.6999,-61.871209)" />
  </defs>
  <sodipodi:namedview
     id="base"
     pagecolor="#ffffff"
     bordercolor="#666666"
     borderopacity="1.0"
     inkscape:pageopacity="0.0"
     inkscape:pageshadow="2"
     inkscape:zoom="0.7"
     inkscape:cx="239.23062"
     inkscape:cy="208.70654"
     inkscape:document-units="px"
     inkscape:current-layer="layer1"
     showgrid="false"
     units="px"
     inkscape:snap-bbox="true"
     inkscape:bbox-paths="true"
     inkscape:bbox-nodes="true"
     inkscape:snap-bbox-edge-midpoints="true"
     inkscape:snap-bbox-midpoints="true"
     inkscape:snap-global="false"
     inkscape:window-width="1366"
     inkscape:window-height="705"
     inkscape:window-x="0"
     inkscape:window-y="30"
     inkscape:window-maximized="1" />
  <metadata
     id="metadata7">
    <rdf:RDF>
      <cc:Work
         rdf:about="">
        <dc:format>image/svg+xml</dc:format>
        <dc:type
           rdf:resource="http://purl.org/dc/dcmitype/StillImage" />
        <dc:title />
      </cc:Work>
    </rdf:RDF>
  </metadata>
  <g
     inkscape:label="Camada 1"
     inkscape:groupmode="layer"
     id="layer1"
     transform="translate(0,-552.36216)">
    <path
       style="opacity:0.65;fill:url(#linearGradient4164);fill-opacity:1;stroke:none;stroke-width:20;stroke-miterlimit:4;stroke-dasharray:none;stroke-opacity:1"
       d="m 246.53789,565.24486 a 237.14285,237.14285 0 0 0 -164.222695,69.43164 237.14285,237.14285 0 0 0 0,335.37109 L 417.68438,1305.4167 753.05547,970.04759 417.68438,634.6765 A 237.14285,237.14285 0 0 0 246.53789,565.24486 Z"
       id="path4152"
       inkscape:connector-curvature="0" />
    <path
       style="opacity:1;fill:#ffffff;fill-opacity:1;stroke:none;stroke-width:20;stroke-miterlimit:4;stroke-dasharray:none;stroke-opacity:1"
       d="M 250.00001,565.21959 A 237.1425,237.1425 0 0 0 12.857435,802.36217 237.1425,237.1425 0 0 0 250.00001,1039.5047 237.1425,237.1425 0 0 0 487.14256,802.36217 237.1425,237.1425 0 0 0 250.00001,565.21959 Z m 22.28124,90.53907 45.09375,0.17578 0,50.24218 -32.74414,0 c -5.3349,0 -12.9082,2.66334 -12.9082,14.0918 l 0,30.43164 46.39844,0 -5.31055,51.77149 -41.08789,0 0,146.49418 -60.89453,0 0,-146.49418 -28.94922,0 0,-51.77149 28.94922,0 0,-33.49023 c 0,-23.97973 11.39372,-61.45117 61.45312,-61.45117 z"
       id="path4254"
       inkscape:connector-curvature="0" />
  </g>
</svg>
