<?xml version="1.0" encoding="UTF-8" standalone="no"?>
<!-- Created with Inkscape (http://www.inkscape.org/) -->

<svg
   xmlns:dc="http://purl.org/dc/elements/1.1/"
   xmlns:cc="http://creativecommons.org/ns#"
   xmlns:rdf="http://www.w3.org/1999/02/22-rdf-syntax-ns#"
   xmlns:svg="http://www.w3.org/2000/svg"
   xmlns="http://www.w3.org/2000/svg"
   xmlns:xlink="http://www.w3.org/1999/xlink"
   xmlns:sodipodi="http://sodipodi.sourceforge.net/DTD/sodipodi-0.dtd"
   xmlns:inkscape="http://www.inkscape.org/namespaces/inkscape"
   width="500"
   height="500"
   viewBox="0 0 500.00001 500.00001"
   id="svg2"
   version="1.1"
   inkscape:version="0.91 r13725"
   sodipodi:docname="instagram.svg">
  <defs
     id="defs4">
    <linearGradient
       inkscape:collect="always"
       xlink:href="#linearGradient4158"
       id="linearGradient4164"
       x1="-1898.1282"
       y1="-187.19489"
       x2="-825.17212"
       y2="912.90363"
       gradientUnits="userSpaceOnUse"
       gradientTransform="translate(1196.7,-61.871149)" />
    <linearGradient
       inkscape:collect="always"
       id="linearGradient4158">
      <stop
         style="stop-color:#1a1a1a;stop-opacity:1;"
         offset="0"
         id="stop4160" />
      <stop
         style="stop-color:#1a1a1a;stop-opacity:0;"
         offset="1"
         id="stop4162" />
    </linearGradient>
  </defs>
  <sodipodi:namedview
     id="base"
     pagecolor="#ffffff"
     bordercolor="#666666"
     borderopacity="1.0"
     inkscape:pageopacity="0.0"
     inkscape:pageshadow="2"
     inkscape:zoom="0.98994949"
     inkscape:cx="99.555352"
     inkscape:cy="201.31024"
     inkscape:document-units="px"
     inkscape:current-layer="layer1"
     showgrid="false"
     units="px"
     inkscape:snap-bbox="true"
     inkscape:bbox-paths="true"
     inkscape:bbox-nodes="true"
     inkscape:snap-bbox-edge-midpoints="true"
     inkscape:snap-bbox-midpoints="true"
     inkscape:snap-global="false"
     inkscape:window-width="1366"
     inkscape:window-height="705"
     inkscape:window-x="0"
     inkscape:window-y="30"
     inkscape:window-maximized="1" />
  <metadata
     id="metadata7">
    <rdf:RDF>
      <cc:Work
         rdf:about="">
        <dc:format>image/svg+xml</dc:format>
        <dc:type
           rdf:resource="http://purl.org/dc/dcmitype/StillImage" />
        <dc:title />
      </cc:Work>
    </rdf:RDF>
  </metadata>
  <g
     inkscape:label="Camada 1"
     inkscape:groupmode="layer"
     id="layer1"
     transform="translate(0,-552.36216)">
    <path
       style="opacity:0.65;fill:url(#linearGradient4164);fill-opacity:1;stroke:none;stroke-width:20;stroke-miterlimit:4;stroke-dasharray:none;stroke-opacity:1"
       d="m 246.53795,565.24492 a 237.14285,237.14285 0 0 0 -164.222705,69.43164 237.14285,237.14285 0 0 0 0,335.37106 L 417.68444,1305.4168 753.05553,970.04762 417.68444,634.67656 A 237.14285,237.14285 0 0 0 246.53795,565.24492 Z"
       id="path4152"
       inkscape:connector-curvature="0" />
    <path
       style="opacity:1;fill:#ffffff;fill-opacity:1;stroke:none;stroke-width:20;stroke-miterlimit:4;stroke-dasharray:none;stroke-opacity:1"
       d="M 250.00008,565.21965 A 237.1425,237.1425 0 0 0 12.8575,802.36222 237.1425,237.1425 0 0 0 250.00008,1039.5048 237.1425,237.1425 0 0 0 487.14266,802.36222 237.1425,237.1425 0 0 0 250.00008,565.21965 Z m -50.05078,116.63085 100.10156,0 c 20.40928,0 38.38912,6.80358 51.02344,19.92383 12.63431,12.63432 19.4375,30.12783 19.4375,50.53711 l 0,100.10156 c 0,20.89522 -6.80358,38.87545 -19.92383,51.50977 -12.63432,12.14838 -30.12823,18.95117 -51.02344,18.95117 l -99.13086,0 c -19.92334,0 -37.41685,-6.31686 -50.53711,-18.95117 -13.60619,-13.12026 -20.4082,-31.10087 -20.4082,-51.99609 l 0,-99.61524 c 0,-42.27637 28.18457,-70.46094 70.46094,-70.46094 z m 0.48437,22.35352 c -14.57806,0 -27.21175,4.37191 -35.47265,12.63281 -8.74684,8.74683 -13.11914,20.89655 -13.11914,35.47461 l 0,99.61524 c 0,15.06399 4.3723,27.2141 13.11914,35.96093 8.74683,8.2609 20.8946,12.63282 35.47265,12.63282 l 99.13086,0 c 14.57805,0 26.72778,-4.37192 35.47461,-12.63282 8.74684,-8.2609 14.0918,-20.41061 14.0918,-35.47461 l 0,-100.10156 c 0,-14.09212 -4.8602,-26.24144 -13.1211,-34.98828 -8.74683,-8.74683 -20.8946,-13.11914 -35.47265,-13.11914 l -100.10352,0 z m 114.19531,19.92188 a 14.092124,14.092124 0 0 1 14.0918,14.09179 14.092124,14.092124 0 0 1 -14.0918,14.09375 14.092124,14.092124 0 0 1 -14.09179,-14.09375 14.092124,14.092124 0 0 1 14.09179,-14.09179 z m -64.6289,15.55078 c 34.01548,0 62.19922,28.18375 62.19922,62.19922 0,34.01547 -27.69781,62.19921 -62.19922,62.19921 -34.5014,0 -62.19922,-27.6978 -62.19922,-62.19921 0,-34.5014 28.18375,-62.19922 62.19922,-62.19922 z m 0,22.35351 c -21.86708,0 -39.84766,17.97863 -39.84766,39.84571 0,21.86709 17.98058,39.84765 39.84766,39.84765 21.86709,0 39.8457,-17.98056 39.8457,-39.84765 0,-21.86708 -17.97861,-39.84571 -39.8457,-39.84571 z"
       id="path4141"
       inkscape:connector-curvature="0" />
  </g>
</svg>
