<?xml version="1.0" encoding="UTF-8" standalone="no"?>
<!-- Created with Inkscape (http://www.inkscape.org/) -->

<svg
   xmlns:dc="http://purl.org/dc/elements/1.1/"
   xmlns:cc="http://creativecommons.org/ns#"
   xmlns:rdf="http://www.w3.org/1999/02/22-rdf-syntax-ns#"
   xmlns:svg="http://www.w3.org/2000/svg"
   xmlns="http://www.w3.org/2000/svg"
   xmlns:xlink="http://www.w3.org/1999/xlink"
   xmlns:sodipodi="http://sodipodi.sourceforge.net/DTD/sodipodi-0.dtd"
   xmlns:inkscape="http://www.inkscape.org/namespaces/inkscape"
   width="500"
   height="500"
   viewBox="0 0 500.00001 500.00001"
   id="svg2"
   version="1.1"
   inkscape:version="0.91 r13725"
   sodipodi:docname="medium.svg">
  <defs
     id="defs4">
    <linearGradient
       inkscape:collect="always"
       xlink:href="#linearGradient4158"
       id="linearGradient4164"
       x1="-1898.1282"
       y1="-187.19489"
       x2="-825.17212"
       y2="912.90363"
       gradientUnits="userSpaceOnUse"
       gradientTransform="translate(1183.8425,-74.728641)" />
    <linearGradient
       inkscape:collect="always"
       id="linearGradient4158">
      <stop
         style="stop-color:#1a1a1a;stop-opacity:1;"
         offset="0"
         id="stop4160" />
      <stop
         style="stop-color:#1a1a1a;stop-opacity:0;"
         offset="1"
         id="stop4162" />
    </linearGradient>
  </defs>
  <sodipodi:namedview
     id="base"
     pagecolor="#ffffff"
     bordercolor="#666666"
     borderopacity="1.0"
     inkscape:pageopacity="0.0"
     inkscape:pageshadow="2"
     inkscape:zoom="0.49497475"
     inkscape:cx="407.79628"
     inkscape:cy="134.92947"
     inkscape:document-units="px"
     inkscape:current-layer="layer1"
     showgrid="false"
     units="px"
     inkscape:snap-bbox="true"
     inkscape:bbox-paths="true"
     inkscape:bbox-nodes="true"
     inkscape:snap-bbox-edge-midpoints="true"
     inkscape:snap-bbox-midpoints="true"
     inkscape:snap-global="false"
     inkscape:window-width="1366"
     inkscape:window-height="705"
     inkscape:window-x="0"
     inkscape:window-y="30"
     inkscape:window-maximized="1" />
  <metadata
     id="metadata7">
    <rdf:RDF>
      <cc:Work
         rdf:about="">
        <dc:format>image/svg+xml</dc:format>
        <dc:type
           rdf:resource="http://purl.org/dc/dcmitype/StillImage" />
        <dc:title />
      </cc:Work>
    </rdf:RDF>
  </metadata>
  <g
     inkscape:label="Camada 1"
     inkscape:groupmode="layer"
     id="layer1"
     transform="translate(0,-552.36216)">
    <path
       style="opacity:0.65;fill:url(#linearGradient4164);fill-opacity:1;stroke:none;stroke-width:20;stroke-miterlimit:4;stroke-dasharray:none;stroke-opacity:1"
       d="m 233.68046,552.38743 a 237.14285,237.14285 0 0 0 -164.2227,69.43164 237.14285,237.14285 0 0 0 0,335.37109 L 404.82695,1292.5593 740.19804,957.19016 404.82695,621.81907 A 237.14285,237.14285 0 0 0 233.68046,552.38743 Z"
       id="path4152"
       inkscape:connector-curvature="0" />
    <path
       style="opacity:1;fill:#ffffff;fill-opacity:1;stroke:none;stroke-width:20;stroke-miterlimit:4;stroke-dasharray:none;stroke-opacity:1"
       d="M 237.14258,552.36216 A 237.14285,237.14285 0 0 0 0,789.50474 237.14285,237.14285 0 0 0 237.14258,1026.6474 237.14285,237.14285 0 0 0 474.28516,789.50474 237.14285,237.14285 0 0 0 237.14258,552.36216 Z m 53.90625,110.24414 c 1.56249,0 3.01426,0.33622 4.35352,1.00586 l 90.56835,45.20118 c 0.44644,0.22324 0.66993,0.55749 0.66993,1.0039 0,0.33484 -14.31416,23.74416 -42.94141,70.22852 -28.62725,46.48439 -45.39595,73.68916 -50.30664,81.61328 L 228.10156,755.52037 282.34375,667.2938 c 1.89734,-3.12499 4.79881,-4.6875 8.70508,-4.6875 z m -197.37696,1.17188 c 1.5625,0 4.01702,0.83761 7.36524,2.51172 l 85.54688,42.85742 c 0.33482,0.33481 0.50195,0.61468 0.50195,0.83789 l 0,196.37109 c 0,2.79017 -0.6967,5.16214 -2.0918,7.11524 -1.39508,1.95316 -3.43275,2.92969 -6.11133,2.92969 -1.89732,0 -3.73772,-0.44503 -5.52343,-1.33789 L 95.51367,876.05552 c -2.34375,-1.11606 -4.32505,-2.98464 -5.94336,-5.60742 -1.6183,-2.62279 -2.42773,-5.21824 -2.42773,-7.78516 l 0,-190.84765 c 0,-2.23214 0.55775,-4.13086 1.67383,-5.69336 1.11607,-1.5625 2.73493,-2.34375 4.85546,-2.34375 z m 104.12891,63.11523 89.39844,144.97657 -89.39844,-44.53125 0,-100.44532 z m 189.3418,3.01368 0,176.44921 c 0,2.79017 -0.78125,5.05135 -2.34375,6.78125 -1.56249,1.72992 -3.68277,2.59375 -6.36133,2.59375 -2.67856,0 -5.30218,-0.72488 -7.86914,-2.17578 l -73.82812,-36.83008 90.40234,-146.81835 z"
       id="path4147"
       inkscape:connector-curvature="0" />
  </g>
</svg>
