<?xml version="1.0" encoding="UTF-8" standalone="no"?>
<!-- Created with Inkscape (http://www.inkscape.org/) -->

<svg
   xmlns:dc="http://purl.org/dc/elements/1.1/"
   xmlns:cc="http://creativecommons.org/ns#"
   xmlns:rdf="http://www.w3.org/1999/02/22-rdf-syntax-ns#"
   xmlns:svg="http://www.w3.org/2000/svg"
   xmlns="http://www.w3.org/2000/svg"
   xmlns:sodipodi="http://sodipodi.sourceforge.net/DTD/sodipodi-0.dtd"
   xmlns:inkscape="http://www.inkscape.org/namespaces/inkscape"
   width="3090.2815"
   height="3090.2815"
   viewBox="0 0 3090.2816 3090.2816"
   id="svg2"
   version="1.1"
   inkscape:version="0.91 r13725"
   sodipodi:docname="missão.svg">
  <sodipodi:namedview
     id="base"
     pagecolor="#ffffff"
     bordercolor="#666666"
     borderopacity="1.0"
     inkscape:pageopacity="0.0"
     inkscape:pageshadow="2"
     inkscape:zoom="0.044194174"
     inkscape:cx="-1874.8235"
     inkscape:cy="2680.5886"
     inkscape:document-units="px"
     inkscape:current-layer="g5117"
     showgrid="false"
     units="px"
     inkscape:snap-bbox="true"
     inkscape:bbox-paths="true"
     inkscape:bbox-nodes="true"
     inkscape:snap-bbox-edge-midpoints="true"
     inkscape:snap-bbox-midpoints="true"
     inkscape:snap-global="false"
     inkscape:window-width="1366"
     inkscape:window-height="705"
     inkscape:window-x="0"
     inkscape:window-y="30"
     inkscape:window-maximized="1"
     fit-margin-top="0"
     fit-margin-left="0"
     fit-margin-right="0"
     fit-margin-bottom="0" />
  <defs
     id="defs4">
    <clipPath
       id="clipPath4495"
       clipPathUnits="userSpaceOnUse">
      <rect
         transform="matrix(0.70710678,0.70710678,-0.70710678,0.70710678,0,0)"
         y="67.850197"
         x="988.21631"
         height="232.85715"
         width="394.28571"
         id="rect4497"
         style="opacity:0.67299996;fill:#00ff00;fill-opacity:0.59223298;stroke:none;stroke-width:10.07199955;stroke-miterlimit:4;stroke-dasharray:none;stroke-opacity:1" />
    </clipPath>
    <clipPath
       id="clipPath4661"
       clipPathUnits="userSpaceOnUse">
      <rect
         ry="4.5535698"
         transform="matrix(0.81253347,0.58291454,-0.58291454,0.81253347,0,0)"
         y="201.61089"
         x="1389.8381"
         height="110.30865"
         width="421.43564"
         id="rect4663"
         style="opacity:1;fill:#b3b3b3;fill-opacity:1;stroke:none;stroke-width:10;stroke-linecap:square;stroke-linejoin:miter;stroke-miterlimit:4;stroke-dasharray:none;stroke-opacity:1" />
    </clipPath>
    <clipPath
       id="clipPath4690"
       clipPathUnits="userSpaceOnUse">
      <rect
         ry="16.649599"
         transform="matrix(0.7900924,-0.61298776,0.61298776,0.7900924,0,0)"
         y="-6.278502"
         x="985.37317"
         height="305.47012"
         width="323.85492"
         id="rect4692"
         style="opacity:1;fill:#ffffff;fill-opacity:1;stroke:none;stroke-width:10;stroke-linecap:square;stroke-linejoin:miter;stroke-miterlimit:4;stroke-dasharray:none;stroke-opacity:1" />
    </clipPath>
    <clipPath
       id="clipPath4746"
       clipPathUnits="userSpaceOnUse">
      <rect
         ry="2.2244"
         transform="matrix(0.81253347,0.58291454,-0.58291454,0.81253347,0,0)"
         y="108.2728"
         x="1433.6788"
         height="175.36249"
         width="502.04581"
         id="rect4748"
         style="opacity:1;fill:#cccccc;fill-opacity:1;stroke:none;stroke-width:10;stroke-linecap:square;stroke-linejoin:miter;stroke-miterlimit:4;stroke-dasharray:none;stroke-opacity:1" />
    </clipPath>
    <clipPath
       id="clipPath4746-3"
       clipPathUnits="userSpaceOnUse">
      <rect
         ry="2.2244"
         transform="matrix(0.81253347,0.58291454,-0.58291454,0.81253347,0,0)"
         y="108.2728"
         x="1433.6788"
         height="175.36249"
         width="502.04581"
         id="rect4748-6"
         style="opacity:1;fill:#cccccc;fill-opacity:1;stroke:none;stroke-width:10;stroke-linecap:square;stroke-linejoin:miter;stroke-miterlimit:4;stroke-dasharray:none;stroke-opacity:1" />
    </clipPath>
    <clipPath
       id="clipPath5052"
       clipPathUnits="userSpaceOnUse">
      <rect
         ry="2.2244"
         transform="matrix(0.81253347,0.58291454,-0.58291454,0.81253347,0,0)"
         y="108.2728"
         x="1433.6788"
         height="175.36249"
         width="502.04581"
         id="rect5054"
         style="opacity:1;fill:#cccccc;fill-opacity:1;stroke:none;stroke-width:10;stroke-linecap:square;stroke-linejoin:miter;stroke-miterlimit:4;stroke-dasharray:none;stroke-opacity:1" />
    </clipPath>
    <clipPath
       id="clipPath5056"
       clipPathUnits="userSpaceOnUse">
      <rect
         ry="2.2244"
         transform="matrix(0.81253347,0.58291454,-0.58291454,0.81253347,0,0)"
         y="108.2728"
         x="1433.6788"
         height="175.36249"
         width="502.04581"
         id="rect5058"
         style="opacity:1;fill:#cccccc;fill-opacity:1;stroke:none;stroke-width:10;stroke-linecap:square;stroke-linejoin:miter;stroke-miterlimit:4;stroke-dasharray:none;stroke-opacity:1" />
    </clipPath>
    <filter
       id="filter5655"
       inkscape:label="Drop Shadow"
       style="color-interpolation-filters:sRGB">
      <feFlood
         id="feFlood5657"
         result="flood"
         flood-color="rgb(0,0,0)"
         flood-opacity="0.498039" />
      <feComposite
         id="feComposite5659"
         result="composite1"
         operator="in"
         in2="SourceGraphic"
         in="flood" />
      <feGaussianBlur
         id="feGaussianBlur5661"
         result="blur"
         stdDeviation="0"
         in="composite1" />
      <feOffset
         id="feOffset5663"
         result="offset"
         dy="20.8"
         dx="50" />
      <feComposite
         id="feComposite5665"
         result="composite2"
         operator="atop"
         in2="offset"
         in="offset" />
    </filter>
    <clipPath
       clipPathUnits="userSpaceOnUse"
       id="clipPath17090">
      <rect
         ry="2.272052"
         y="1244.9401"
         x="-1052.2709"
         height="580.1264"
         width="580.1264"
         id="rect17092"
         style="opacity:1;fill:#673ab7;fill-opacity:1;stroke:none;stroke-width:17.59000015;stroke-linecap:square;stroke-linejoin:miter;stroke-miterlimit:4;stroke-dasharray:none;stroke-opacity:1" />
    </clipPath>
    <clipPath
       clipPathUnits="userSpaceOnUse"
       id="clipPath4389">
      <path
         style="opacity:1;fill:#000000;fill-opacity:1;stroke:none;stroke-width:17.59000015;stroke-linecap:square;stroke-linejoin:miter;stroke-miterlimit:4;stroke-dasharray:none;stroke-opacity:1"
         d="m 2112.0174,3061.237 643.757,-695.9474 c 1.5002,-1.6218 4.0136,-1.7197 5.6354,-0.2195 l 1090.4516,1008.6766 c 1.6218,1.5002 1.7197,4.0136 0.2195,5.6354 l -643.757,695.9474 c -1.5002,1.6218 -4.0136,1.7197 -5.6354,0.2196 L 2112.2369,3066.8724 c -1.6218,-1.5002 -1.7197,-4.0136 -0.2195,-5.6354 z"
         id="path4391"
         inkscape:connector-curvature="0" />
    </clipPath>
    <clipPath
       clipPathUnits="userSpaceOnUse"
       id="clipPath4393">
      <path
         style="opacity:1;fill:#000000;fill-opacity:1;stroke:none;stroke-width:17.59000015;stroke-linecap:square;stroke-linejoin:miter;stroke-miterlimit:4;stroke-dasharray:none;stroke-opacity:1"
         d="m 2112.0174,3061.237 643.757,-695.9474 c 1.5002,-1.6218 4.0136,-1.7197 5.6354,-0.2195 l 1090.4516,1008.6766 c 1.6218,1.5002 1.7197,4.0136 0.2195,5.6354 l -643.757,695.9474 c -1.5002,1.6218 -4.0136,1.7197 -5.6354,0.2196 L 2112.2369,3066.8724 c -1.6218,-1.5002 -1.7197,-4.0136 -0.2195,-5.6354 z"
         id="path4395"
         inkscape:connector-curvature="0" />
    </clipPath>
    <clipPath
       clipPathUnits="userSpaceOnUse"
       id="clipPath4397">
      <path
         style="opacity:1;fill:#000000;fill-opacity:1;stroke:none;stroke-width:17.59000015;stroke-linecap:square;stroke-linejoin:miter;stroke-miterlimit:4;stroke-dasharray:none;stroke-opacity:1"
         d="m 796.32457,862.79599 823.75053,274.42261 c 1.9197,0.6395 2.9503,2.6998 2.3108,4.6195 l -429.9817,1290.7013 c -0.6395,1.9196 -2.6997,2.9502 -4.6194,2.3106 L 364.03422,2160.4274 c -1.91967,-0.6395 -2.95026,-2.6998 -2.31077,-4.6194 L 791.70511,865.10674 c 0.63951,-1.91967 2.69978,-2.95026 4.61946,-2.31075 z"
         id="path4399"
         inkscape:connector-curvature="0" />
    </clipPath>
    <clipPath
       clipPathUnits="userSpaceOnUse"
       id="clipPath4401">
      <path
         style="opacity:1;fill:#000000;fill-opacity:1;stroke:none;stroke-width:17.59000015;stroke-linecap:square;stroke-linejoin:miter;stroke-miterlimit:4;stroke-dasharray:none;stroke-opacity:1"
         d="m 2112.0174,3061.237 643.757,-695.9474 c 1.5002,-1.6218 4.0136,-1.7197 5.6354,-0.2195 l 1090.4516,1008.6766 c 1.6218,1.5002 1.7197,4.0136 0.2195,5.6354 l -643.757,695.9474 c -1.5002,1.6218 -4.0136,1.7197 -5.6354,0.2196 L 2112.2369,3066.8724 c -1.6218,-1.5002 -1.7197,-4.0136 -0.2195,-5.6354 z"
         id="path4403"
         inkscape:connector-curvature="0" />
    </clipPath>
    <clipPath
       clipPathUnits="userSpaceOnUse"
       id="clipPath4405">
      <path
         style="opacity:1;fill:#000000;fill-opacity:1;stroke:none;stroke-width:17.59000015;stroke-linecap:square;stroke-linejoin:miter;stroke-miterlimit:4;stroke-dasharray:none;stroke-opacity:1"
         d="m 2112.0174,3061.237 643.757,-695.9474 c 1.5002,-1.6218 4.0136,-1.7197 5.6354,-0.2195 l 1090.4516,1008.6766 c 1.6218,1.5002 1.7197,4.0136 0.2195,5.6354 l -643.757,695.9474 c -1.5002,1.6218 -4.0136,1.7197 -5.6354,0.2196 L 2112.2369,3066.8724 c -1.6218,-1.5002 -1.7197,-4.0136 -0.2195,-5.6354 z"
         id="path4407"
         inkscape:connector-curvature="0" />
    </clipPath>
    <clipPath
       clipPathUnits="userSpaceOnUse"
       id="clipPath4409">
      <path
         style="opacity:1;fill:#000000;fill-opacity:1;stroke:none;stroke-width:17.59000015;stroke-linecap:square;stroke-linejoin:miter;stroke-miterlimit:4;stroke-dasharray:none;stroke-opacity:1"
         d="m 796.32457,862.79599 823.75053,274.42261 c 1.9197,0.6395 2.9503,2.6998 2.3108,4.6195 l -429.9817,1290.7013 c -0.6395,1.9196 -2.6997,2.9502 -4.6194,2.3106 L 364.03422,2160.4274 c -1.91967,-0.6395 -2.95026,-2.6998 -2.31077,-4.6194 L 791.70511,865.10674 c 0.63951,-1.91967 2.69978,-2.95026 4.61946,-2.31075 z"
         id="path4411"
         inkscape:connector-curvature="0" />
    </clipPath>
    <clipPath
       clipPathUnits="userSpaceOnUse"
       id="clipPath4413">
      <path
         style="opacity:1;fill:#000000;fill-opacity:1;stroke:none;stroke-width:17.59000015;stroke-linecap:square;stroke-linejoin:miter;stroke-miterlimit:4;stroke-dasharray:none;stroke-opacity:1"
         d="m 2112.0174,3061.237 643.757,-695.9474 c 1.5002,-1.6218 4.0136,-1.7197 5.6354,-0.2195 l 1090.4516,1008.6766 c 1.6218,1.5002 1.7197,4.0136 0.2195,5.6354 l -643.757,695.9474 c -1.5002,1.6218 -4.0136,1.7197 -5.6354,0.2196 L 2112.2369,3066.8724 c -1.6218,-1.5002 -1.7197,-4.0136 -0.2195,-5.6354 z"
         id="path4416"
         inkscape:connector-curvature="0" />
    </clipPath>
    <clipPath
       clipPathUnits="userSpaceOnUse"
       id="clipPath4418">
      <path
         style="opacity:1;fill:#000000;fill-opacity:1;stroke:none;stroke-width:17.59000015;stroke-linecap:square;stroke-linejoin:miter;stroke-miterlimit:4;stroke-dasharray:none;stroke-opacity:1"
         d="m 2112.0174,3061.237 643.757,-695.9474 c 1.5002,-1.6218 4.0136,-1.7197 5.6354,-0.2195 l 1090.4516,1008.6766 c 1.6218,1.5002 1.7197,4.0136 0.2195,5.6354 l -643.757,695.9474 c -1.5002,1.6218 -4.0136,1.7197 -5.6354,0.2196 L 2112.2369,3066.8724 c -1.6218,-1.5002 -1.7197,-4.0136 -0.2195,-5.6354 z"
         id="path4420"
         inkscape:connector-curvature="0" />
    </clipPath>
    <clipPath
       clipPathUnits="userSpaceOnUse"
       id="clipPath4422">
      <path
         style="opacity:1;fill:#000000;fill-opacity:1;stroke:none;stroke-width:17.59000015;stroke-linecap:square;stroke-linejoin:miter;stroke-miterlimit:4;stroke-dasharray:none;stroke-opacity:1"
         d="m 2112.0174,3061.237 643.757,-695.9474 c 1.5002,-1.6218 4.0136,-1.7197 5.6354,-0.2195 l 1090.4516,1008.6766 c 1.6218,1.5002 1.7197,4.0136 0.2195,5.6354 l -643.757,695.9474 c -1.5002,1.6218 -4.0136,1.7197 -5.6354,0.2196 L 2112.2369,3066.8724 c -1.6218,-1.5002 -1.7197,-4.0136 -0.2195,-5.6354 z"
         id="path4424"
         inkscape:connector-curvature="0" />
    </clipPath>
    <clipPath
       clipPathUnits="userSpaceOnUse"
       id="clipPath4426">
      <path
         style="opacity:1;fill:#000000;fill-opacity:1;stroke:none;stroke-width:17.59000015;stroke-linecap:square;stroke-linejoin:miter;stroke-miterlimit:4;stroke-dasharray:none;stroke-opacity:1"
         d="m 2112.0174,3061.237 643.757,-695.9474 c 1.5002,-1.6218 4.0136,-1.7197 5.6354,-0.2195 l 1090.4516,1008.6766 c 1.6218,1.5002 1.7197,4.0136 0.2195,5.6354 l -643.757,695.9474 c -1.5002,1.6218 -4.0136,1.7197 -5.6354,0.2196 L 2112.2369,3066.8724 c -1.6218,-1.5002 -1.7197,-4.0136 -0.2195,-5.6354 z"
         id="path4428"
         inkscape:connector-curvature="0" />
    </clipPath>
    <clipPath
       clipPathUnits="userSpaceOnUse"
       id="clipPath4556">
      <rect
         style="opacity:0.403;fill:#c50000;fill-opacity:0.54268296;stroke:none;stroke-width:17.59000015;stroke-linecap:square;stroke-linejoin:miter;stroke-miterlimit:4;stroke-dasharray:none;stroke-opacity:1"
         id="rect4558"
         width="1001.8889"
         height="2262.7417"
         x="2305.4639"
         y="2453.4231"
         ry="3.98789" />
    </clipPath>
    <clipPath
       clipPathUnits="userSpaceOnUse"
       id="clipPath4566">
      <circle
         r="828.72913"
         cy="1328.9506"
         cx="3827.8333"
         id="circle4568"
         style="opacity:1;fill:#666666;fill-opacity:1;stroke:none;stroke-width:17.59000015;stroke-linecap:square;stroke-linejoin:miter;stroke-miterlimit:4;stroke-dasharray:none;stroke-opacity:1"
         transform="matrix(0.8660254,0.5,-0.5,0.8660254,0,0)" />
    </clipPath>
    <clipPath
       clipPathUnits="userSpaceOnUse"
       id="clipPath4598">
      <circle
         r="828.72913"
         cy="3091.658"
         cx="415.77878"
         id="circle4600"
         style="opacity:1;fill:#808080;fill-opacity:1;stroke:none;stroke-width:17.59000015;stroke-linecap:square;stroke-linejoin:miter;stroke-miterlimit:4;stroke-dasharray:none;stroke-opacity:1" />
    </clipPath>
    <clipPath
       clipPathUnits="userSpaceOnUse"
       id="clipPath5539">
      <circle
         r="1545.1407"
         cy="4080.0696"
         cx="-339.80951"
         id="circle5541"
         style="opacity:1;fill:#433080;fill-opacity:1;stroke:none;stroke-width:17.59000015;stroke-linecap:square;stroke-linejoin:miter;stroke-miterlimit:4;stroke-dasharray:none;stroke-opacity:1"
         transform="matrix(-0.70710678,-0.70710678,0.70710678,-0.70710678,0,0)" />
    </clipPath>
    <clipPath
       clipPathUnits="userSpaceOnUse"
       id="clipPath5545">
      <circle
         r="1545.1407"
         cy="4080.0696"
         cx="-339.80951"
         id="circle5547"
         style="opacity:1;fill:#433080;fill-opacity:1;stroke:none;stroke-width:17.59000015;stroke-linecap:square;stroke-linejoin:miter;stroke-miterlimit:4;stroke-dasharray:none;stroke-opacity:1" />
    </clipPath>
    <clipPath
       clipPathUnits="userSpaceOnUse"
       id="clipPath5697">
      <circle
         style="opacity:1;fill:#f44336;fill-opacity:1;stroke:none;stroke-width:3;stroke-miterlimit:4;stroke-dasharray:none;stroke-opacity:1"
         id="circle5699"
         cx="-339.80951"
         cy="4080.0696"
         r="687.08374"
         transform="matrix(-0.70710678,-0.70710678,0.70710678,-0.70710678,0,0)" />
    </clipPath>
  </defs>
  <metadata
     id="metadata7">
    <rdf:RDF>
      <cc:Work
         rdf:about="">
        <dc:format>image/svg+xml</dc:format>
        <dc:type
           rdf:resource="http://purl.org/dc/dcmitype/StillImage" />
        <dc:title />
      </cc:Work>
    </rdf:RDF>
  </metadata>
  <g
     transform="translate(1884.9503,-2534.9288)"
     id="layer1"
     inkscape:groupmode="layer"
     inkscape:label="Camada 1">
    <g
       id="g4775"
       transform="translate(-474.95777,-91.999998)">
      <g
         id="g4755"
         style="stroke:#000000;stroke-width:1;stroke-miterlimit:4;stroke-dasharray:none;stroke-opacity:1"
         transform="matrix(-1,0,0,1,7455.0691,12.100505)">
        <g
           id="g4757" />
      </g>
    </g>
    <g
       id="g5701">
      <g
         id="g5721">
        <g
           id="g4289">
          <g
             transform="matrix(0.70710678,-0.70710678,0.70710678,0.70710678,-683.79799,867.2724)"
             id="g4265">
            <g
               transform="matrix(0.70710678,0.70710678,-0.70710678,0.70710678,1098.6551,-129.97757)"
               id="g4277">
              <g
                 id="g4325"
                 transform="translate(0.88388346,-0.35355338)">
                <g
                   id="g4345">
                  <g
                     id="g4365">
                    <g
                       id="g5097">
                      <g
                         id="g5117">
                        <circle
                           transform="translate(-2.0443426,1.8556445)"
                           r="1545.1407"
                           cy="4080.0696"
                           cx="-339.80951"
                           id="path4306"
                           style="opacity:1;fill:#eeeeee;fill-opacity:1;stroke:none;stroke-width:17.59000015;stroke-linecap:square;stroke-linejoin:miter;stroke-miterlimit:4;stroke-dasharray:none;stroke-opacity:1" />
                        <path
                           transform="translate(-2.0443426,1.8556445)"
                           clip-path="url(#clipPath5545)"
                           inkscape:connector-curvature="0"
                           id="rect5473"
                           d="m -818.5039,3587.002 a 687.08374,687.08374 0 0 0 -208.3893,492.8838 687.08374,687.08374 0 0 0 203.2199,487.3389 l 0.8825,1.3603 1781.9216,1781.9216 c 2.0076,2.0076 5.2414,2.0091 7.2491,0 L 2203.1015,5113.7864 c 2.0077,-2.0077 2.0064,-5.2415 0,-7.2492 L 333.9876,3237.4248 c -1.0492,-1.0492 -2.4321,-1.5362 -3.8008,-1.4889 l -0.023,-1.6421 -2.2566,2.2567 c -0.4181,0.2294 -0.812,0.5192 -1.167,0.8743 l -161.1347,161.1347 0.019,0.2734 -18.2619,18.2619 2.1779,149.6622 25.8302,-25.8301 0.018,0.2776 -41.8159,41.8159 A 687.08374,687.08374 0 0 0 -339.809,3392.8017 687.08374,687.08374 0 0 0 -818.5037,3587.002 Z"
                           style="opacity:0.3;fill:#1a1a1a;fill-opacity:1;stroke:none;stroke-width:0.5;stroke-linecap:square;stroke-linejoin:miter;stroke-miterlimit:4;stroke-dasharray:none;stroke-opacity:1" />
                        <circle
                           transform="translate(-2.0443426,1.8556445)"
                           style="opacity:1;fill:#f44336;fill-opacity:1;stroke:none;stroke-width:3;stroke-miterlimit:4;stroke-dasharray:none;stroke-opacity:1"
                           id="path4575"
                           cx="-339.80951"
                           cy="4080.0696"
                           r="687.08374" />
                        <circle
                           transform="translate(-2.0443426,1.8556445)"
                           r="517.05627"
                           cy="4080.0696"
                           cx="-339.80951"
                           id="circle4595"
                           style="opacity:1;fill:#ffffff;fill-opacity:1;stroke:none;stroke-width:3;stroke-miterlimit:4;stroke-dasharray:none;stroke-opacity:1" />
                        <circle
                           transform="translate(-2.0443426,1.8556445)"
                           style="opacity:1;fill:#f44336;fill-opacity:1;stroke:none;stroke-width:3;stroke-miterlimit:4;stroke-dasharray:none;stroke-opacity:1"
                           id="circle4597"
                           cx="-339.80951"
                           cy="4080.0696"
                           r="359.39444" />
                        <circle
                           transform="translate(-2.0443426,1.8556445)"
                           r="211.00682"
                           cy="4080.0696"
                           cx="-339.80951"
                           id="circle4599"
                           style="opacity:1;fill:#ffffff;fill-opacity:1;stroke:none;stroke-width:3;stroke-miterlimit:4;stroke-dasharray:none;stroke-opacity:1" />
                        <circle
                           transform="translate(-2.0443426,1.8556445)"
                           style="opacity:1;fill:#f44336;fill-opacity:1;stroke:none;stroke-width:3;stroke-miterlimit:4;stroke-dasharray:none;stroke-opacity:1"
                           id="circle4601"
                           cx="-339.80951"
                           cy="4080.0696"
                           r="102.80752" />
                        <rect
                           clip-path="url(#clipPath5697)"
                           transform="matrix(-0.70710678,0.70710678,-0.70710678,-0.70710678,-2.0443426,1.8556445)"
                           ry="5.1251516"
                           y="-5802.4658"
                           x="3096.1487"
                           height="3153.9395"
                           width="33.21244"
                           id="rect5334"
                           style="opacity:0.5;fill:#1a1a1a;fill-opacity:1;stroke:none;stroke-width:17.59000015;stroke-linecap:square;stroke-linejoin:miter;stroke-miterlimit:4;stroke-dasharray:none;stroke-opacity:1" />
                        <g
                           id="g5255"
                           transform="matrix(0.58712,0.58712,-0.58712,0.58712,-443.64316,-306.43527)">
                          <path
                             id="path4769"
                             d="m 3973.5975,2356.5101 -129.3094,125.6012 0,104.7179 129.3093,-125.6012 z"
                             style="opacity:1;fill:#ffbc59;fill-opacity:1;stroke:#000000;stroke-width:0.5;stroke-linecap:square;stroke-linejoin:miter;stroke-miterlimit:4;stroke-dasharray:none;stroke-opacity:1"
                             inkscape:connector-curvature="0" />
                          <path
                             inkscape:connector-curvature="0"
                             style="opacity:1;fill:#ab5433;fill-opacity:1;stroke:#000000;stroke-width:0.5;stroke-linecap:square;stroke-linejoin:miter;stroke-miterlimit:4;stroke-dasharray:none;stroke-opacity:1"
                             d="m 3973.5975,2460.5016 -129.3092,125.6012 -1e-4,104.7179 129.3092,-125.6012 z"
                             id="path4771" />
                          <path
                             id="path4773"
                             d="m 3973.5975,2563.1426 -129.3094,125.6013 0,104.7178 129.3093,-125.6011 z"
                             style="opacity:1;fill:#ffbc59;fill-opacity:1;stroke:#000000;stroke-width:0.5;stroke-linecap:square;stroke-linejoin:miter;stroke-miterlimit:4;stroke-dasharray:none;stroke-opacity:1"
                             inkscape:connector-curvature="0" />
                        </g>
                        <path
                           id="path5057"
                           d="m 330.16263,3234.4789 2.17704,149.6631 -61.48192,61.482 -2.17704,-149.663 z"
                           style="opacity:1;fill:#ffbc59;fill-opacity:1;stroke:#000000;stroke-width:0.41515654;stroke-linecap:square;stroke-linejoin:miter;stroke-miterlimit:4;stroke-dasharray:none;stroke-opacity:1"
                           inkscape:connector-curvature="0" />
                        <path
                           inkscape:connector-curvature="0"
                           style="opacity:1;fill:#ab5433;fill-opacity:1;stroke:#000000;stroke-width:0.41515654;stroke-linecap:square;stroke-linejoin:miter;stroke-miterlimit:4;stroke-dasharray:none;stroke-opacity:1"
                           d="m 269.10714,3295.5344 2.17698,149.6631 -61.48191,61.482 -2.17699,-149.663 z"
                           id="path5059" />
                        <path
                           id="path5061"
                           d="m 208.8445,3355.7971 2.17704,149.6631 -61.48192,61.4819 -2.17704,-149.663 z"
                           style="opacity:1;fill:#ffbc59;fill-opacity:1;stroke:#000000;stroke-width:0.41515654;stroke-linecap:square;stroke-linejoin:miter;stroke-miterlimit:4;stroke-dasharray:none;stroke-opacity:1"
                           inkscape:connector-curvature="0" />
                        <rect
                           ry="1.6801517"
                           y="2090.3699"
                           x="2628.157"
                           height="1033.9395"
                           width="33.21244"
                           id="rect4671"
                           style="opacity:1;fill:#969696;fill-opacity:1;stroke:none;stroke-width:17.59000015;stroke-linecap:square;stroke-linejoin:miter;stroke-miterlimit:4;stroke-dasharray:none;stroke-opacity:1"
                           transform="matrix(0.70710678,0.70710678,-0.70710678,0.70710678,0,0)" />
                        <rect
                           style="opacity:1;fill:#cccccc;fill-opacity:1;stroke:none;stroke-width:17.59000015;stroke-linecap:square;stroke-linejoin:miter;stroke-miterlimit:4;stroke-dasharray:none;stroke-opacity:1"
                           id="rect4673"
                           width="18.363199"
                           height="1033.9396"
                           x="2628.157"
                           y="2090.3699"
                           ry="1.6801517"
                           transform="matrix(0.70710678,0.70710678,-0.70710678,0.70710678,0,0)" />
                        <ellipse
                           ry="10.588277"
                           rx="16.606258"
                           style="opacity:1;fill:#cccccc;fill-opacity:1;stroke:none;stroke-width:1.37300003;stroke-linecap:square;stroke-linejoin:miter;stroke-miterlimit:4;stroke-dasharray:none;stroke-opacity:1"
                           id="circle4876"
                           cx="2644.7632"
                           cy="3122.6023"
                           transform="matrix(0.70710678,0.70710678,-0.70710678,0.70710678,0,0)" />
                      </g>
                    </g>
                  </g>
                </g>
              </g>
            </g>
          </g>
        </g>
      </g>
    </g>
    <g
       id="g5441"
       transform="matrix(0.70710678,0.70710678,-0.70710678,0.70710678,6192.5867,2227.8058)" />
  </g>
</svg>
