<?xml version="1.0" encoding="UTF-8" standalone="no"?>
<!-- Created with Inkscape (http://www.inkscape.org/) -->

<svg
   xmlns:dc="http://purl.org/dc/elements/1.1/"
   xmlns:cc="http://creativecommons.org/ns#"
   xmlns:rdf="http://www.w3.org/1999/02/22-rdf-syntax-ns#"
   xmlns:svg="http://www.w3.org/2000/svg"
   xmlns="http://www.w3.org/2000/svg"
   xmlns:sodipodi="http://sodipodi.sourceforge.net/DTD/sodipodi-0.dtd"
   xmlns:inkscape="http://www.inkscape.org/namespaces/inkscape"
   width="3090.2817"
   height="3090.2815"
   viewBox="0 0 3090.2818 3090.2816"
   id="svg2"
   version="1.1"
   inkscape:version="0.91 r13725"
   sodipodi:docname="valores.svg">
  <sodipodi:namedview
     id="base"
     pagecolor="#ffffff"
     bordercolor="#666666"
     borderopacity="1.0"
     inkscape:pageopacity="0.0"
     inkscape:pageshadow="2"
     inkscape:zoom="0.125"
     inkscape:cx="1138.5087"
     inkscape:cy="1671.1248"
     inkscape:document-units="px"
     inkscape:current-layer="g4803"
     showgrid="false"
     units="px"
     inkscape:snap-bbox="true"
     inkscape:bbox-paths="true"
     inkscape:bbox-nodes="true"
     inkscape:snap-bbox-edge-midpoints="true"
     inkscape:snap-bbox-midpoints="true"
     inkscape:snap-global="true"
     inkscape:window-width="1366"
     inkscape:window-height="705"
     inkscape:window-x="0"
     inkscape:window-y="30"
     inkscape:window-maximized="1"
     fit-margin-top="0"
     fit-margin-left="0"
     fit-margin-right="0"
     fit-margin-bottom="0" />
  <defs
     id="defs4">
    <clipPath
       id="clipPath4495"
       clipPathUnits="userSpaceOnUse">
      <rect
         transform="matrix(0.70710678,0.70710678,-0.70710678,0.70710678,0,0)"
         y="67.850197"
         x="988.21631"
         height="232.85715"
         width="394.28571"
         id="rect4497"
         style="opacity:0.67299996;fill:#00ff00;fill-opacity:0.59223298;stroke:none;stroke-width:10.07199955;stroke-miterlimit:4;stroke-dasharray:none;stroke-opacity:1" />
    </clipPath>
    <clipPath
       id="clipPath4661"
       clipPathUnits="userSpaceOnUse">
      <rect
         ry="4.5535698"
         transform="matrix(0.81253347,0.58291454,-0.58291454,0.81253347,0,0)"
         y="201.61089"
         x="1389.8381"
         height="110.30865"
         width="421.43564"
         id="rect4663"
         style="opacity:1;fill:#b3b3b3;fill-opacity:1;stroke:none;stroke-width:10;stroke-linecap:square;stroke-linejoin:miter;stroke-miterlimit:4;stroke-dasharray:none;stroke-opacity:1" />
    </clipPath>
    <clipPath
       id="clipPath4690"
       clipPathUnits="userSpaceOnUse">
      <rect
         ry="16.649599"
         transform="matrix(0.7900924,-0.61298776,0.61298776,0.7900924,0,0)"
         y="-6.278502"
         x="985.37317"
         height="305.47012"
         width="323.85492"
         id="rect4692"
         style="opacity:1;fill:#ffffff;fill-opacity:1;stroke:none;stroke-width:10;stroke-linecap:square;stroke-linejoin:miter;stroke-miterlimit:4;stroke-dasharray:none;stroke-opacity:1" />
    </clipPath>
    <clipPath
       id="clipPath4746"
       clipPathUnits="userSpaceOnUse">
      <rect
         ry="2.2244"
         transform="matrix(0.81253347,0.58291454,-0.58291454,0.81253347,0,0)"
         y="108.2728"
         x="1433.6788"
         height="175.36249"
         width="502.04581"
         id="rect4748"
         style="opacity:1;fill:#cccccc;fill-opacity:1;stroke:none;stroke-width:10;stroke-linecap:square;stroke-linejoin:miter;stroke-miterlimit:4;stroke-dasharray:none;stroke-opacity:1" />
    </clipPath>
    <clipPath
       id="clipPath4746-3"
       clipPathUnits="userSpaceOnUse">
      <rect
         ry="2.2244"
         transform="matrix(0.81253347,0.58291454,-0.58291454,0.81253347,0,0)"
         y="108.2728"
         x="1433.6788"
         height="175.36249"
         width="502.04581"
         id="rect4748-6"
         style="opacity:1;fill:#cccccc;fill-opacity:1;stroke:none;stroke-width:10;stroke-linecap:square;stroke-linejoin:miter;stroke-miterlimit:4;stroke-dasharray:none;stroke-opacity:1" />
    </clipPath>
    <clipPath
       id="clipPath5052"
       clipPathUnits="userSpaceOnUse">
      <rect
         ry="2.2244"
         transform="matrix(0.81253347,0.58291454,-0.58291454,0.81253347,0,0)"
         y="108.2728"
         x="1433.6788"
         height="175.36249"
         width="502.04581"
         id="rect5054"
         style="opacity:1;fill:#cccccc;fill-opacity:1;stroke:none;stroke-width:10;stroke-linecap:square;stroke-linejoin:miter;stroke-miterlimit:4;stroke-dasharray:none;stroke-opacity:1" />
    </clipPath>
    <clipPath
       id="clipPath5056"
       clipPathUnits="userSpaceOnUse">
      <rect
         ry="2.2244"
         transform="matrix(0.81253347,0.58291454,-0.58291454,0.81253347,0,0)"
         y="108.2728"
         x="1433.6788"
         height="175.36249"
         width="502.04581"
         id="rect5058"
         style="opacity:1;fill:#cccccc;fill-opacity:1;stroke:none;stroke-width:10;stroke-linecap:square;stroke-linejoin:miter;stroke-miterlimit:4;stroke-dasharray:none;stroke-opacity:1" />
    </clipPath>
    <filter
       id="filter5655"
       inkscape:label="Drop Shadow"
       style="color-interpolation-filters:sRGB">
      <feFlood
         id="feFlood5657"
         result="flood"
         flood-color="rgb(0,0,0)"
         flood-opacity="0.498039" />
      <feComposite
         id="feComposite5659"
         result="composite1"
         operator="in"
         in2="SourceGraphic"
         in="flood" />
      <feGaussianBlur
         id="feGaussianBlur5661"
         result="blur"
         stdDeviation="0"
         in="composite1" />
      <feOffset
         id="feOffset5663"
         result="offset"
         dy="20.8"
         dx="50" />
      <feComposite
         id="feComposite5665"
         result="composite2"
         operator="atop"
         in2="offset"
         in="offset" />
    </filter>
    <clipPath
       clipPathUnits="userSpaceOnUse"
       id="clipPath17090">
      <rect
         ry="2.272052"
         y="1244.9401"
         x="-1052.2709"
         height="580.1264"
         width="580.1264"
         id="rect17092"
         style="opacity:1;fill:#673ab7;fill-opacity:1;stroke:none;stroke-width:17.59000015;stroke-linecap:square;stroke-linejoin:miter;stroke-miterlimit:4;stroke-dasharray:none;stroke-opacity:1" />
    </clipPath>
    <clipPath
       clipPathUnits="userSpaceOnUse"
       id="clipPath4389">
      <path
         style="opacity:1;fill:#000000;fill-opacity:1;stroke:none;stroke-width:17.59000015;stroke-linecap:square;stroke-linejoin:miter;stroke-miterlimit:4;stroke-dasharray:none;stroke-opacity:1"
         d="m 2112.0174,3061.237 643.757,-695.9474 c 1.5002,-1.6218 4.0136,-1.7197 5.6354,-0.2195 l 1090.4516,1008.6766 c 1.6218,1.5002 1.7197,4.0136 0.2195,5.6354 l -643.757,695.9474 c -1.5002,1.6218 -4.0136,1.7197 -5.6354,0.2196 L 2112.2369,3066.8724 c -1.6218,-1.5002 -1.7197,-4.0136 -0.2195,-5.6354 z"
         id="path4391"
         inkscape:connector-curvature="0" />
    </clipPath>
    <clipPath
       clipPathUnits="userSpaceOnUse"
       id="clipPath4393">
      <path
         style="opacity:1;fill:#000000;fill-opacity:1;stroke:none;stroke-width:17.59000015;stroke-linecap:square;stroke-linejoin:miter;stroke-miterlimit:4;stroke-dasharray:none;stroke-opacity:1"
         d="m 2112.0174,3061.237 643.757,-695.9474 c 1.5002,-1.6218 4.0136,-1.7197 5.6354,-0.2195 l 1090.4516,1008.6766 c 1.6218,1.5002 1.7197,4.0136 0.2195,5.6354 l -643.757,695.9474 c -1.5002,1.6218 -4.0136,1.7197 -5.6354,0.2196 L 2112.2369,3066.8724 c -1.6218,-1.5002 -1.7197,-4.0136 -0.2195,-5.6354 z"
         id="path4395"
         inkscape:connector-curvature="0" />
    </clipPath>
    <clipPath
       clipPathUnits="userSpaceOnUse"
       id="clipPath4397">
      <path
         style="opacity:1;fill:#000000;fill-opacity:1;stroke:none;stroke-width:17.59000015;stroke-linecap:square;stroke-linejoin:miter;stroke-miterlimit:4;stroke-dasharray:none;stroke-opacity:1"
         d="m 796.32457,862.79599 823.75053,274.42261 c 1.9197,0.6395 2.9503,2.6998 2.3108,4.6195 l -429.9817,1290.7013 c -0.6395,1.9196 -2.6997,2.9502 -4.6194,2.3106 L 364.03422,2160.4274 c -1.91967,-0.6395 -2.95026,-2.6998 -2.31077,-4.6194 L 791.70511,865.10674 c 0.63951,-1.91967 2.69978,-2.95026 4.61946,-2.31075 z"
         id="path4399"
         inkscape:connector-curvature="0" />
    </clipPath>
    <clipPath
       clipPathUnits="userSpaceOnUse"
       id="clipPath4401">
      <path
         style="opacity:1;fill:#000000;fill-opacity:1;stroke:none;stroke-width:17.59000015;stroke-linecap:square;stroke-linejoin:miter;stroke-miterlimit:4;stroke-dasharray:none;stroke-opacity:1"
         d="m 2112.0174,3061.237 643.757,-695.9474 c 1.5002,-1.6218 4.0136,-1.7197 5.6354,-0.2195 l 1090.4516,1008.6766 c 1.6218,1.5002 1.7197,4.0136 0.2195,5.6354 l -643.757,695.9474 c -1.5002,1.6218 -4.0136,1.7197 -5.6354,0.2196 L 2112.2369,3066.8724 c -1.6218,-1.5002 -1.7197,-4.0136 -0.2195,-5.6354 z"
         id="path4403"
         inkscape:connector-curvature="0" />
    </clipPath>
    <clipPath
       clipPathUnits="userSpaceOnUse"
       id="clipPath4405">
      <path
         style="opacity:1;fill:#000000;fill-opacity:1;stroke:none;stroke-width:17.59000015;stroke-linecap:square;stroke-linejoin:miter;stroke-miterlimit:4;stroke-dasharray:none;stroke-opacity:1"
         d="m 2112.0174,3061.237 643.757,-695.9474 c 1.5002,-1.6218 4.0136,-1.7197 5.6354,-0.2195 l 1090.4516,1008.6766 c 1.6218,1.5002 1.7197,4.0136 0.2195,5.6354 l -643.757,695.9474 c -1.5002,1.6218 -4.0136,1.7197 -5.6354,0.2196 L 2112.2369,3066.8724 c -1.6218,-1.5002 -1.7197,-4.0136 -0.2195,-5.6354 z"
         id="path4407"
         inkscape:connector-curvature="0" />
    </clipPath>
    <clipPath
       clipPathUnits="userSpaceOnUse"
       id="clipPath4409">
      <path
         style="opacity:1;fill:#000000;fill-opacity:1;stroke:none;stroke-width:17.59000015;stroke-linecap:square;stroke-linejoin:miter;stroke-miterlimit:4;stroke-dasharray:none;stroke-opacity:1"
         d="m 796.32457,862.79599 823.75053,274.42261 c 1.9197,0.6395 2.9503,2.6998 2.3108,4.6195 l -429.9817,1290.7013 c -0.6395,1.9196 -2.6997,2.9502 -4.6194,2.3106 L 364.03422,2160.4274 c -1.91967,-0.6395 -2.95026,-2.6998 -2.31077,-4.6194 L 791.70511,865.10674 c 0.63951,-1.91967 2.69978,-2.95026 4.61946,-2.31075 z"
         id="path4411"
         inkscape:connector-curvature="0" />
    </clipPath>
    <clipPath
       clipPathUnits="userSpaceOnUse"
       id="clipPath4413">
      <path
         style="opacity:1;fill:#000000;fill-opacity:1;stroke:none;stroke-width:17.59000015;stroke-linecap:square;stroke-linejoin:miter;stroke-miterlimit:4;stroke-dasharray:none;stroke-opacity:1"
         d="m 2112.0174,3061.237 643.757,-695.9474 c 1.5002,-1.6218 4.0136,-1.7197 5.6354,-0.2195 l 1090.4516,1008.6766 c 1.6218,1.5002 1.7197,4.0136 0.2195,5.6354 l -643.757,695.9474 c -1.5002,1.6218 -4.0136,1.7197 -5.6354,0.2196 L 2112.2369,3066.8724 c -1.6218,-1.5002 -1.7197,-4.0136 -0.2195,-5.6354 z"
         id="path4416"
         inkscape:connector-curvature="0" />
    </clipPath>
    <clipPath
       clipPathUnits="userSpaceOnUse"
       id="clipPath4418">
      <path
         style="opacity:1;fill:#000000;fill-opacity:1;stroke:none;stroke-width:17.59000015;stroke-linecap:square;stroke-linejoin:miter;stroke-miterlimit:4;stroke-dasharray:none;stroke-opacity:1"
         d="m 2112.0174,3061.237 643.757,-695.9474 c 1.5002,-1.6218 4.0136,-1.7197 5.6354,-0.2195 l 1090.4516,1008.6766 c 1.6218,1.5002 1.7197,4.0136 0.2195,5.6354 l -643.757,695.9474 c -1.5002,1.6218 -4.0136,1.7197 -5.6354,0.2196 L 2112.2369,3066.8724 c -1.6218,-1.5002 -1.7197,-4.0136 -0.2195,-5.6354 z"
         id="path4420"
         inkscape:connector-curvature="0" />
    </clipPath>
    <clipPath
       clipPathUnits="userSpaceOnUse"
       id="clipPath4422">
      <path
         style="opacity:1;fill:#000000;fill-opacity:1;stroke:none;stroke-width:17.59000015;stroke-linecap:square;stroke-linejoin:miter;stroke-miterlimit:4;stroke-dasharray:none;stroke-opacity:1"
         d="m 2112.0174,3061.237 643.757,-695.9474 c 1.5002,-1.6218 4.0136,-1.7197 5.6354,-0.2195 l 1090.4516,1008.6766 c 1.6218,1.5002 1.7197,4.0136 0.2195,5.6354 l -643.757,695.9474 c -1.5002,1.6218 -4.0136,1.7197 -5.6354,0.2196 L 2112.2369,3066.8724 c -1.6218,-1.5002 -1.7197,-4.0136 -0.2195,-5.6354 z"
         id="path4424"
         inkscape:connector-curvature="0" />
    </clipPath>
    <clipPath
       clipPathUnits="userSpaceOnUse"
       id="clipPath4426">
      <path
         style="opacity:1;fill:#000000;fill-opacity:1;stroke:none;stroke-width:17.59000015;stroke-linecap:square;stroke-linejoin:miter;stroke-miterlimit:4;stroke-dasharray:none;stroke-opacity:1"
         d="m 2112.0174,3061.237 643.757,-695.9474 c 1.5002,-1.6218 4.0136,-1.7197 5.6354,-0.2195 l 1090.4516,1008.6766 c 1.6218,1.5002 1.7197,4.0136 0.2195,5.6354 l -643.757,695.9474 c -1.5002,1.6218 -4.0136,1.7197 -5.6354,0.2196 L 2112.2369,3066.8724 c -1.6218,-1.5002 -1.7197,-4.0136 -0.2195,-5.6354 z"
         id="path4428"
         inkscape:connector-curvature="0" />
    </clipPath>
    <clipPath
       clipPathUnits="userSpaceOnUse"
       id="clipPath4556">
      <rect
         style="opacity:0.403;fill:#c50000;fill-opacity:0.54268296;stroke:none;stroke-width:17.59000015;stroke-linecap:square;stroke-linejoin:miter;stroke-miterlimit:4;stroke-dasharray:none;stroke-opacity:1"
         id="rect4558"
         width="1001.8889"
         height="2262.7417"
         x="2305.4639"
         y="2453.4231"
         ry="3.98789" />
    </clipPath>
    <clipPath
       clipPathUnits="userSpaceOnUse"
       id="clipPath4566">
      <circle
         r="828.72913"
         cy="1328.9506"
         cx="3827.8333"
         id="circle4568"
         style="opacity:1;fill:#666666;fill-opacity:1;stroke:none;stroke-width:17.59000015;stroke-linecap:square;stroke-linejoin:miter;stroke-miterlimit:4;stroke-dasharray:none;stroke-opacity:1"
         transform="matrix(0.8660254,0.5,-0.5,0.8660254,0,0)" />
    </clipPath>
    <clipPath
       clipPathUnits="userSpaceOnUse"
       id="clipPath4598">
      <circle
         r="828.72913"
         cy="3091.658"
         cx="415.77878"
         id="circle4600"
         style="opacity:1;fill:#808080;fill-opacity:1;stroke:none;stroke-width:17.59000015;stroke-linecap:square;stroke-linejoin:miter;stroke-miterlimit:4;stroke-dasharray:none;stroke-opacity:1" />
    </clipPath>
    <clipPath
       clipPathUnits="userSpaceOnUse"
       id="clipPath5539">
      <circle
         r="1545.1407"
         cy="4080.0696"
         cx="-339.80951"
         id="circle5541"
         style="opacity:1;fill:#433080;fill-opacity:1;stroke:none;stroke-width:17.59000015;stroke-linecap:square;stroke-linejoin:miter;stroke-miterlimit:4;stroke-dasharray:none;stroke-opacity:1"
         transform="matrix(-0.70710678,-0.70710678,0.70710678,-0.70710678,0,0)" />
    </clipPath>
    <clipPath
       clipPathUnits="userSpaceOnUse"
       id="clipPath5545">
      <circle
         r="1545.1407"
         cy="4080.0696"
         cx="-339.80951"
         id="circle5547"
         style="opacity:1;fill:#433080;fill-opacity:1;stroke:none;stroke-width:17.59000015;stroke-linecap:square;stroke-linejoin:miter;stroke-miterlimit:4;stroke-dasharray:none;stroke-opacity:1" />
    </clipPath>
    <clipPath
       clipPathUnits="userSpaceOnUse"
       id="clipPath5697">
      <circle
         style="opacity:1;fill:#f44336;fill-opacity:1;stroke:none;stroke-width:3;stroke-miterlimit:4;stroke-dasharray:none;stroke-opacity:1"
         id="circle5699"
         cx="-339.80951"
         cy="4080.0696"
         r="687.08374"
         transform="matrix(-0.70710678,-0.70710678,0.70710678,-0.70710678,0,0)" />
    </clipPath>
    <clipPath
       clipPathUnits="userSpaceOnUse"
       id="clipPath4495-5">
      <rect
         style="opacity:0.67299996;fill:#00ff00;fill-opacity:0.59223298;stroke:none;stroke-width:10.07199955;stroke-miterlimit:4;stroke-dasharray:none;stroke-opacity:1"
         id="rect4497-3"
         width="394.28571"
         height="232.85715"
         x="988.21631"
         y="67.850197"
         transform="matrix(0.70710678,0.70710678,-0.70710678,0.70710678,0,0)" />
    </clipPath>
    <clipPath
       clipPathUnits="userSpaceOnUse"
       id="clipPath4661-5">
      <rect
         style="opacity:1;fill:#b3b3b3;fill-opacity:1;stroke:none;stroke-width:10;stroke-linecap:square;stroke-linejoin:miter;stroke-miterlimit:4;stroke-dasharray:none;stroke-opacity:1"
         id="rect4663-6"
         width="421.43564"
         height="110.30865"
         x="1389.8381"
         y="201.61089"
         transform="matrix(0.81253347,0.58291454,-0.58291454,0.81253347,0,0)"
         ry="4.5535698" />
    </clipPath>
    <clipPath
       clipPathUnits="userSpaceOnUse"
       id="clipPath4690-2">
      <rect
         style="opacity:1;fill:#ffffff;fill-opacity:1;stroke:none;stroke-width:10;stroke-linecap:square;stroke-linejoin:miter;stroke-miterlimit:4;stroke-dasharray:none;stroke-opacity:1"
         id="rect4692-9"
         width="323.85492"
         height="305.47012"
         x="985.37317"
         y="-6.278502"
         transform="matrix(0.7900924,-0.61298776,0.61298776,0.7900924,0,0)"
         ry="16.649599" />
    </clipPath>
    <clipPath
       clipPathUnits="userSpaceOnUse"
       id="clipPath4746-1">
      <rect
         style="opacity:1;fill:#cccccc;fill-opacity:1;stroke:none;stroke-width:10;stroke-linecap:square;stroke-linejoin:miter;stroke-miterlimit:4;stroke-dasharray:none;stroke-opacity:1"
         id="rect4748-2"
         width="502.04581"
         height="175.36249"
         x="1433.6788"
         y="108.2728"
         transform="matrix(0.81253347,0.58291454,-0.58291454,0.81253347,0,0)"
         ry="2.2244" />
    </clipPath>
    <clipPath
       clipPathUnits="userSpaceOnUse"
       id="clipPath4746-3-7">
      <rect
         style="opacity:1;fill:#cccccc;fill-opacity:1;stroke:none;stroke-width:10;stroke-linecap:square;stroke-linejoin:miter;stroke-miterlimit:4;stroke-dasharray:none;stroke-opacity:1"
         id="rect4748-6-0"
         width="502.04581"
         height="175.36249"
         x="1433.6788"
         y="108.2728"
         transform="matrix(0.81253347,0.58291454,-0.58291454,0.81253347,0,0)"
         ry="2.2244" />
    </clipPath>
    <clipPath
       clipPathUnits="userSpaceOnUse"
       id="clipPath5052-9">
      <rect
         style="opacity:1;fill:#cccccc;fill-opacity:1;stroke:none;stroke-width:10;stroke-linecap:square;stroke-linejoin:miter;stroke-miterlimit:4;stroke-dasharray:none;stroke-opacity:1"
         id="rect5054-3"
         width="502.04581"
         height="175.36249"
         x="1433.6788"
         y="108.2728"
         transform="matrix(0.81253347,0.58291454,-0.58291454,0.81253347,0,0)"
         ry="2.2244" />
    </clipPath>
    <clipPath
       clipPathUnits="userSpaceOnUse"
       id="clipPath5056-6">
      <rect
         style="opacity:1;fill:#cccccc;fill-opacity:1;stroke:none;stroke-width:10;stroke-linecap:square;stroke-linejoin:miter;stroke-miterlimit:4;stroke-dasharray:none;stroke-opacity:1"
         id="rect5058-0"
         width="502.04581"
         height="175.36249"
         x="1433.6788"
         y="108.2728"
         transform="matrix(0.81253347,0.58291454,-0.58291454,0.81253347,0,0)"
         ry="2.2244" />
    </clipPath>
    <filter
       style="color-interpolation-filters:sRGB"
       inkscape:label="Drop Shadow"
       id="filter5655-6">
      <feFlood
         flood-opacity="0.498039"
         flood-color="rgb(0,0,0)"
         result="flood"
         id="feFlood5657-2" />
      <feComposite
         in="flood"
         in2="SourceGraphic"
         operator="in"
         result="composite1"
         id="feComposite5659-6" />
      <feGaussianBlur
         in="composite1"
         stdDeviation="0"
         result="blur"
         id="feGaussianBlur5661-1" />
      <feOffset
         dx="50"
         dy="20.8"
         result="offset"
         id="feOffset5663-8" />
      <feComposite
         in="offset"
         in2="offset"
         operator="atop"
         result="composite2"
         id="feComposite5665-7" />
    </filter>
    <clipPath
       id="clipPath17090-9"
       clipPathUnits="userSpaceOnUse">
      <rect
         style="opacity:1;fill:#673ab7;fill-opacity:1;stroke:none;stroke-width:17.59000015;stroke-linecap:square;stroke-linejoin:miter;stroke-miterlimit:4;stroke-dasharray:none;stroke-opacity:1"
         id="rect17092-2"
         width="580.1264"
         height="580.1264"
         x="-1052.2709"
         y="1244.9401"
         ry="2.272052" />
    </clipPath>
    <clipPath
       id="clipPath4389-0"
       clipPathUnits="userSpaceOnUse">
      <path
         inkscape:connector-curvature="0"
         id="path4391-2"
         d="m 2112.0174,3061.237 643.757,-695.9474 c 1.5002,-1.6218 4.0136,-1.7197 5.6354,-0.2195 l 1090.4516,1008.6766 c 1.6218,1.5002 1.7197,4.0136 0.2195,5.6354 l -643.757,695.9474 c -1.5002,1.6218 -4.0136,1.7197 -5.6354,0.2196 L 2112.2369,3066.8724 c -1.6218,-1.5002 -1.7197,-4.0136 -0.2195,-5.6354 z"
         style="opacity:1;fill:#000000;fill-opacity:1;stroke:none;stroke-width:17.59000015;stroke-linecap:square;stroke-linejoin:miter;stroke-miterlimit:4;stroke-dasharray:none;stroke-opacity:1" />
    </clipPath>
    <clipPath
       id="clipPath4393-3"
       clipPathUnits="userSpaceOnUse">
      <path
         inkscape:connector-curvature="0"
         id="path4395-7"
         d="m 2112.0174,3061.237 643.757,-695.9474 c 1.5002,-1.6218 4.0136,-1.7197 5.6354,-0.2195 l 1090.4516,1008.6766 c 1.6218,1.5002 1.7197,4.0136 0.2195,5.6354 l -643.757,695.9474 c -1.5002,1.6218 -4.0136,1.7197 -5.6354,0.2196 L 2112.2369,3066.8724 c -1.6218,-1.5002 -1.7197,-4.0136 -0.2195,-5.6354 z"
         style="opacity:1;fill:#000000;fill-opacity:1;stroke:none;stroke-width:17.59000015;stroke-linecap:square;stroke-linejoin:miter;stroke-miterlimit:4;stroke-dasharray:none;stroke-opacity:1" />
    </clipPath>
    <clipPath
       id="clipPath4397-5"
       clipPathUnits="userSpaceOnUse">
      <path
         inkscape:connector-curvature="0"
         id="path4399-9"
         d="m 796.32457,862.79599 823.75053,274.42261 c 1.9197,0.6395 2.9503,2.6998 2.3108,4.6195 l -429.9817,1290.7013 c -0.6395,1.9196 -2.6997,2.9502 -4.6194,2.3106 L 364.03422,2160.4274 c -1.91967,-0.6395 -2.95026,-2.6998 -2.31077,-4.6194 L 791.70511,865.10674 c 0.63951,-1.91967 2.69978,-2.95026 4.61946,-2.31075 z"
         style="opacity:1;fill:#000000;fill-opacity:1;stroke:none;stroke-width:17.59000015;stroke-linecap:square;stroke-linejoin:miter;stroke-miterlimit:4;stroke-dasharray:none;stroke-opacity:1" />
    </clipPath>
    <clipPath
       id="clipPath4401-2"
       clipPathUnits="userSpaceOnUse">
      <path
         inkscape:connector-curvature="0"
         id="path4403-2"
         d="m 2112.0174,3061.237 643.757,-695.9474 c 1.5002,-1.6218 4.0136,-1.7197 5.6354,-0.2195 l 1090.4516,1008.6766 c 1.6218,1.5002 1.7197,4.0136 0.2195,5.6354 l -643.757,695.9474 c -1.5002,1.6218 -4.0136,1.7197 -5.6354,0.2196 L 2112.2369,3066.8724 c -1.6218,-1.5002 -1.7197,-4.0136 -0.2195,-5.6354 z"
         style="opacity:1;fill:#000000;fill-opacity:1;stroke:none;stroke-width:17.59000015;stroke-linecap:square;stroke-linejoin:miter;stroke-miterlimit:4;stroke-dasharray:none;stroke-opacity:1" />
    </clipPath>
    <clipPath
       id="clipPath4405-8"
       clipPathUnits="userSpaceOnUse">
      <path
         inkscape:connector-curvature="0"
         id="path4407-9"
         d="m 2112.0174,3061.237 643.757,-695.9474 c 1.5002,-1.6218 4.0136,-1.7197 5.6354,-0.2195 l 1090.4516,1008.6766 c 1.6218,1.5002 1.7197,4.0136 0.2195,5.6354 l -643.757,695.9474 c -1.5002,1.6218 -4.0136,1.7197 -5.6354,0.2196 L 2112.2369,3066.8724 c -1.6218,-1.5002 -1.7197,-4.0136 -0.2195,-5.6354 z"
         style="opacity:1;fill:#000000;fill-opacity:1;stroke:none;stroke-width:17.59000015;stroke-linecap:square;stroke-linejoin:miter;stroke-miterlimit:4;stroke-dasharray:none;stroke-opacity:1" />
    </clipPath>
    <clipPath
       id="clipPath4409-7"
       clipPathUnits="userSpaceOnUse">
      <path
         inkscape:connector-curvature="0"
         id="path4411-3"
         d="m 796.32457,862.79599 823.75053,274.42261 c 1.9197,0.6395 2.9503,2.6998 2.3108,4.6195 l -429.9817,1290.7013 c -0.6395,1.9196 -2.6997,2.9502 -4.6194,2.3106 L 364.03422,2160.4274 c -1.91967,-0.6395 -2.95026,-2.6998 -2.31077,-4.6194 L 791.70511,865.10674 c 0.63951,-1.91967 2.69978,-2.95026 4.61946,-2.31075 z"
         style="opacity:1;fill:#000000;fill-opacity:1;stroke:none;stroke-width:17.59000015;stroke-linecap:square;stroke-linejoin:miter;stroke-miterlimit:4;stroke-dasharray:none;stroke-opacity:1" />
    </clipPath>
    <clipPath
       id="clipPath4413-6"
       clipPathUnits="userSpaceOnUse">
      <path
         inkscape:connector-curvature="0"
         id="path4416-1"
         d="m 2112.0174,3061.237 643.757,-695.9474 c 1.5002,-1.6218 4.0136,-1.7197 5.6354,-0.2195 l 1090.4516,1008.6766 c 1.6218,1.5002 1.7197,4.0136 0.2195,5.6354 l -643.757,695.9474 c -1.5002,1.6218 -4.0136,1.7197 -5.6354,0.2196 L 2112.2369,3066.8724 c -1.6218,-1.5002 -1.7197,-4.0136 -0.2195,-5.6354 z"
         style="opacity:1;fill:#000000;fill-opacity:1;stroke:none;stroke-width:17.59000015;stroke-linecap:square;stroke-linejoin:miter;stroke-miterlimit:4;stroke-dasharray:none;stroke-opacity:1" />
    </clipPath>
    <clipPath
       id="clipPath4418-2"
       clipPathUnits="userSpaceOnUse">
      <path
         inkscape:connector-curvature="0"
         id="path4420-9"
         d="m 2112.0174,3061.237 643.757,-695.9474 c 1.5002,-1.6218 4.0136,-1.7197 5.6354,-0.2195 l 1090.4516,1008.6766 c 1.6218,1.5002 1.7197,4.0136 0.2195,5.6354 l -643.757,695.9474 c -1.5002,1.6218 -4.0136,1.7197 -5.6354,0.2196 L 2112.2369,3066.8724 c -1.6218,-1.5002 -1.7197,-4.0136 -0.2195,-5.6354 z"
         style="opacity:1;fill:#000000;fill-opacity:1;stroke:none;stroke-width:17.59000015;stroke-linecap:square;stroke-linejoin:miter;stroke-miterlimit:4;stroke-dasharray:none;stroke-opacity:1" />
    </clipPath>
    <clipPath
       id="clipPath4422-3"
       clipPathUnits="userSpaceOnUse">
      <path
         inkscape:connector-curvature="0"
         id="path4424-1"
         d="m 2112.0174,3061.237 643.757,-695.9474 c 1.5002,-1.6218 4.0136,-1.7197 5.6354,-0.2195 l 1090.4516,1008.6766 c 1.6218,1.5002 1.7197,4.0136 0.2195,5.6354 l -643.757,695.9474 c -1.5002,1.6218 -4.0136,1.7197 -5.6354,0.2196 L 2112.2369,3066.8724 c -1.6218,-1.5002 -1.7197,-4.0136 -0.2195,-5.6354 z"
         style="opacity:1;fill:#000000;fill-opacity:1;stroke:none;stroke-width:17.59000015;stroke-linecap:square;stroke-linejoin:miter;stroke-miterlimit:4;stroke-dasharray:none;stroke-opacity:1" />
    </clipPath>
    <clipPath
       id="clipPath4426-9"
       clipPathUnits="userSpaceOnUse">
      <path
         inkscape:connector-curvature="0"
         id="path4428-4"
         d="m 2112.0174,3061.237 643.757,-695.9474 c 1.5002,-1.6218 4.0136,-1.7197 5.6354,-0.2195 l 1090.4516,1008.6766 c 1.6218,1.5002 1.7197,4.0136 0.2195,5.6354 l -643.757,695.9474 c -1.5002,1.6218 -4.0136,1.7197 -5.6354,0.2196 L 2112.2369,3066.8724 c -1.6218,-1.5002 -1.7197,-4.0136 -0.2195,-5.6354 z"
         style="opacity:1;fill:#000000;fill-opacity:1;stroke:none;stroke-width:17.59000015;stroke-linecap:square;stroke-linejoin:miter;stroke-miterlimit:4;stroke-dasharray:none;stroke-opacity:1" />
    </clipPath>
    <clipPath
       id="clipPath4556-7"
       clipPathUnits="userSpaceOnUse">
      <rect
         ry="3.98789"
         y="2453.4231"
         x="2305.4639"
         height="2262.7417"
         width="1001.8889"
         id="rect4558-8"
         style="opacity:0.403;fill:#c50000;fill-opacity:0.54268296;stroke:none;stroke-width:17.59000015;stroke-linecap:square;stroke-linejoin:miter;stroke-miterlimit:4;stroke-dasharray:none;stroke-opacity:1" />
    </clipPath>
    <clipPath
       id="clipPath4566-4"
       clipPathUnits="userSpaceOnUse">
      <circle
         transform="matrix(0.8660254,0.5,-0.5,0.8660254,0,0)"
         style="opacity:1;fill:#666666;fill-opacity:1;stroke:none;stroke-width:17.59000015;stroke-linecap:square;stroke-linejoin:miter;stroke-miterlimit:4;stroke-dasharray:none;stroke-opacity:1"
         id="circle4568-5"
         cx="3827.8333"
         cy="1328.9506"
         r="828.72913" />
    </clipPath>
    <clipPath
       id="clipPath4598-0"
       clipPathUnits="userSpaceOnUse">
      <circle
         style="opacity:1;fill:#808080;fill-opacity:1;stroke:none;stroke-width:17.59000015;stroke-linecap:square;stroke-linejoin:miter;stroke-miterlimit:4;stroke-dasharray:none;stroke-opacity:1"
         id="circle4600-3"
         cx="415.77878"
         cy="3091.658"
         r="828.72913" />
    </clipPath>
    <clipPath
       id="clipPath5539-6"
       clipPathUnits="userSpaceOnUse">
      <circle
         transform="matrix(-0.70710678,-0.70710678,0.70710678,-0.70710678,0,0)"
         style="opacity:1;fill:#433080;fill-opacity:1;stroke:none;stroke-width:17.59000015;stroke-linecap:square;stroke-linejoin:miter;stroke-miterlimit:4;stroke-dasharray:none;stroke-opacity:1"
         id="circle5541-1"
         cx="-339.80951"
         cy="4080.0696"
         r="1545.1407" />
    </clipPath>
    <clipPath
       id="clipPath5545-0"
       clipPathUnits="userSpaceOnUse">
      <circle
         style="opacity:1;fill:#433080;fill-opacity:1;stroke:none;stroke-width:17.59000015;stroke-linecap:square;stroke-linejoin:miter;stroke-miterlimit:4;stroke-dasharray:none;stroke-opacity:1"
         id="circle5547-6"
         cx="-339.80951"
         cy="4080.0696"
         r="1545.1407" />
    </clipPath>
    <clipPath
       id="clipPath5697-3"
       clipPathUnits="userSpaceOnUse">
      <circle
         transform="matrix(-0.70710678,-0.70710678,0.70710678,-0.70710678,0,0)"
         r="687.08374"
         cy="4080.0696"
         cx="-339.80951"
         id="circle5699-2"
         style="opacity:1;fill:#f44336;fill-opacity:1;stroke:none;stroke-width:3;stroke-miterlimit:4;stroke-dasharray:none;stroke-opacity:1" />
    </clipPath>
    <clipPath
       clipPathUnits="userSpaceOnUse"
       id="clipPath5607">
      <circle
         r="1545.1407"
         cy="4081.9253"
         cx="-341.85385"
         id="circle5609"
         style="opacity:1;fill:#cccccc;fill-opacity:1;stroke:none;stroke-width:17.59000015;stroke-linecap:square;stroke-linejoin:miter;stroke-miterlimit:4;stroke-dasharray:none;stroke-opacity:1" />
    </clipPath>
    <clipPath
       clipPathUnits="userSpaceOnUse"
       id="clipPath4427">
      <circle
         style="opacity:1;fill:#cccccc;fill-opacity:1;stroke:none;stroke-width:17.59000015;stroke-linecap:square;stroke-linejoin:miter;stroke-miterlimit:4;stroke-dasharray:none;stroke-opacity:1"
         id="circle4429"
         cx="-8325.2803"
         cy="5834.2773"
         r="1545.1407" />
    </clipPath>
    <clipPath
       clipPathUnits="userSpaceOnUse"
       id="clipPath4665">
      <circle
         r="1545.1407"
         cy="2819.938"
         cx="5555.5059"
         id="circle4667"
         style="opacity:1;fill:#cccccc;fill-opacity:1;stroke:none;stroke-width:17.59000015;stroke-linecap:square;stroke-linejoin:miter;stroke-miterlimit:4;stroke-dasharray:none;stroke-opacity:1" />
    </clipPath>
    <clipPath
       clipPathUnits="userSpaceOnUse"
       id="clipPath4784">
      <circle
         style="opacity:1;fill:#cccccc;fill-opacity:1;stroke:none;stroke-width:17.59000015;stroke-linecap:square;stroke-linejoin:miter;stroke-miterlimit:4;stroke-dasharray:none;stroke-opacity:1"
         id="circle4786"
         cx="5555.5059"
         cy="2771.938"
         r="1545.1407" />
    </clipPath>
    <clipPath
       clipPathUnits="userSpaceOnUse"
       id="clipPath4904">
      <circle
         style="opacity:1;fill:#cccccc;fill-opacity:1;stroke:none;stroke-width:17.59000015;stroke-linecap:square;stroke-linejoin:miter;stroke-miterlimit:4;stroke-dasharray:none;stroke-opacity:1"
         id="circle4906"
         cx="5555.5059"
         cy="2819.938"
         r="1545.1407" />
    </clipPath>
    <clipPath
       clipPathUnits="userSpaceOnUse"
       id="clipPath5119">
      <circle
         r="1545.1407"
         cy="2819.938"
         cx="5555.5059"
         id="circle5121"
         style="opacity:1;fill:#cccccc;fill-opacity:1;stroke:none;stroke-width:17.59000015;stroke-linecap:square;stroke-linejoin:miter;stroke-miterlimit:4;stroke-dasharray:none;stroke-opacity:1" />
    </clipPath>
    <clipPath
       clipPathUnits="userSpaceOnUse"
       id="clipPath5227">
      <circle
         r="1545.1407"
         cy="2819.938"
         cx="5555.5059"
         id="circle5229"
         style="opacity:1;fill:#cccccc;fill-opacity:1;stroke:none;stroke-width:17.59000015;stroke-linecap:square;stroke-linejoin:miter;stroke-miterlimit:4;stroke-dasharray:none;stroke-opacity:1" />
    </clipPath>
    <clipPath
       clipPathUnits="userSpaceOnUse"
       id="clipPath5356">
      <circle
         r="1545.1407"
         cy="1545.1407"
         cx="1545.1407"
         id="circle5358"
         style="opacity:1;fill:#cccccc;fill-opacity:1;stroke:none;stroke-width:17.59000015;stroke-linecap:square;stroke-linejoin:miter;stroke-miterlimit:4;stroke-dasharray:none;stroke-opacity:1" />
    </clipPath>
  </defs>
  <metadata
     id="metadata7">
    <rdf:RDF>
      <cc:Work
         rdf:about="">
        <dc:format>image/svg+xml</dc:format>
        <dc:type
           rdf:resource="http://purl.org/dc/dcmitype/StillImage" />
        <dc:title />
      </cc:Work>
    </rdf:RDF>
  </metadata>
  <g
     transform="translate(-4010.365,-1827.1594)"
     id="layer1"
     inkscape:groupmode="layer"
     inkscape:label="Camada 1">
    <g
       id="g4775"
       transform="translate(-474.95777,-91.999998)">
      <g
         id="g4755"
         style="stroke:#000000;stroke-width:1;stroke-miterlimit:4;stroke-dasharray:none;stroke-opacity:1"
         transform="matrix(-1,0,0,1,7455.0691,12.100505)">
        <g
           id="g4757" />
      </g>
    </g>
    <g
       id="g5701">
      <g
         id="g5721">
        <g
           id="g4289">
          <g
             transform="matrix(0.70710678,-0.70710678,0.70710678,0.70710678,-683.79799,867.2724)"
             id="g4265">
            <g
               transform="matrix(0.70710678,0.70710678,-0.70710678,0.70710678,1098.6551,-129.97757)"
               id="g4277">
              <g
                 id="g4325"
                 transform="translate(0.88388346,-0.35355338)">
                <g
                   id="g4669">
                  <g
                     id="g4518"
                     transform="matrix(0.19336028,0,0,0.19336028,2517.7198,2335.84)">
                    <g
                       id="g4908">
                      <g
                         transform="translate(-1.8749979e-6,-744.7237)"
                         id="g4803">
                        <g
                           transform="matrix(1,0,0,0.8497329,137.87793,1168.8105)"
                           id="g4500">
                          <g
                             id="g4452"
                             transform="matrix(1,0,-0.17917674,1,5000.4748,96)" />
                        </g>
                        <circle
                           style="opacity:1;fill:#eeeeee;fill-opacity:1;stroke:none;stroke-width:17.59000015;stroke-linecap:square;stroke-linejoin:miter;stroke-miterlimit:4;stroke-dasharray:none;stroke-opacity:1"
                           id="circle4430"
                           cx="15699.924"
                           cy="6114.5742"
                           r="7990.9937" />
                        <path
                           style="opacity:0.3;fill:#1a1a1a;fill-opacity:1;stroke:none;stroke-width:17.59000015;stroke-linecap:square;stroke-linejoin:miter;stroke-miterlimit:4;stroke-dasharray:none;stroke-opacity:1"
                           d="M 2312.5605 560.49805 L 2312.2324 560.56055 L 2171.4062 560.56055 L 2029.959 560.56055 C 2029.959 560.55861 2029.957 560.56057 2029.9551 560.5625 C 2029.9551 560.56057 2029.9512 560.55821 2029.9492 560.55859 L 1888.8789 560.56055 L 1747.4316 560.56055 C 1747.1919 560.56047 1746.9144 560.73368 1746.8086 560.94922 L 1614.0781 831.50586 L 1343.3984 560.82617 C 1343.3791 560.80395 1343.3584 560.7839 1343.3359 560.76367 L 1343.2949 560.7207 L 1343.291 560.72461 C 1343.1649 560.62677 1343.0083 560.56062 1342.8633 560.56055 L 1201.793 560.56055 L 1201.418 560.56055 L 1060.3477 560.56055 C 1060.3477 560.55861 1060.3418 560.56057 1060.3398 560.5625 C 1060.3398 560.56057 1060.3379 560.56055 1060.3359 560.56055 L 919.26562 560.56055 L 777.81836 560.56055 C 777.69848 560.5606 777.61069 560.60364 777.56641 560.67383 C 777.52232 560.74404 777.52066 560.8396 777.57422 560.94727 L 1235.0723 1493.5098 C 1235.1262 1493.6199 1235.2242 1493.7166 1235.3398 1493.7871 L 1235.3242 1493.8047 L 1320.6719 1579.1523 A 502.14823 502.14823 0 0 0 1190.0684 1672.5625 L 1190.0684 1672.5645 A 502.14823 502.14823 0 0 0 1190.0684 2382.709 L 3271.7891 4464.4297 L 3981.9336 3754.2852 L 3661.9336 3434.2852 L 4424.1406 2672.0781 L 2312.5605 560.49805 z "
                           transform="matrix(5.171693,0,0,5.171693,7708.93,-1876.4193)"
                           id="circle5308"
                           clip-path="url(#clipPath5356)" />
                        <g
                           id="g5078"
                           transform="matrix(1.0549733,0,0,1.0549733,-863.07662,-893.40644)">
                          <g
                             transform="matrix(0.94789004,0,0,0.81485241,818.11489,1197.0645)"
                             id="g5021">
                            <g
                               transform="matrix(-1,0,0.17917672,0.8497329,26261.495,1250.385)"
                               id="g4488">
                              <rect
                                 style="opacity:1;fill:#ffffff;fill-opacity:1;stroke:none;stroke-width:0.41499999;stroke-linecap:square;stroke-linejoin:miter;stroke-miterlimit:4;stroke-dasharray:none;stroke-opacity:1"
                                 id="rect4490"
                                 width="736"
                                 height="6713.2349"
                                 x="11398.431"
                                 y="-586.9837"
                                 ry="2.797431"
                                 transform="matrix(1,0,-0.17636803,0.98432429,0,0)" />
                              <rect
                                 transform="matrix(1,0,-0.17636803,0.98432429,0,0)"
                                 ry="2.797431"
                                 y="-586.9837"
                                 x="12128.007"
                                 height="6713.2349"
                                 width="736"
                                 id="rect4492"
                                 style="opacity:1;fill:#2196f3;fill-opacity:1;stroke:none;stroke-width:0.41499999;stroke-linecap:square;stroke-linejoin:miter;stroke-miterlimit:4;stroke-dasharray:none;stroke-opacity:1" />
                              <rect
                                 style="opacity:1;fill:#ffffff;fill-opacity:1;stroke:none;stroke-width:0.41499999;stroke-linecap:square;stroke-linejoin:miter;stroke-miterlimit:4;stroke-dasharray:none;stroke-opacity:1"
                                 id="rect4494"
                                 width="736"
                                 height="6713.2349"
                                 x="12859.583"
                                 y="-586.9837"
                                 ry="2.797431"
                                 transform="matrix(1,0,-0.17636803,0.98432429,0,0)" />
                              <rect
                                 transform="matrix(1,0,-0.17636803,0.98432429,0,0)"
                                 ry="2.797431"
                                 y="-586.9837"
                                 x="13589.159"
                                 height="6713.2349"
                                 width="736"
                                 id="rect4496"
                                 style="opacity:1;fill:#2196f3;fill-opacity:1;stroke:none;stroke-width:0.41499999;stroke-linecap:square;stroke-linejoin:miter;stroke-miterlimit:4;stroke-dasharray:none;stroke-opacity:1" />
                            </g>
                            <rect
                               transform="matrix(1,0,-0.38858306,0.9214137,0,0)"
                               ry="2.5393662"
                               y="824.19476"
                               x="17064.102"
                               height="6093.9351"
                               width="736"
                               id="rect4444"
                               style="opacity:1;fill:#2196f3;fill-opacity:1;stroke:none;stroke-width:0.41499999;stroke-linecap:square;stroke-linejoin:miter;stroke-miterlimit:4;stroke-dasharray:none;stroke-opacity:1" />
                            <rect
                               style="opacity:1;fill:#ffffff;fill-opacity:1;stroke:none;stroke-width:0.41499999;stroke-linecap:square;stroke-linejoin:miter;stroke-miterlimit:4;stroke-dasharray:none;stroke-opacity:1"
                               id="rect4446"
                               width="736"
                               height="6093.9351"
                               x="17793.678"
                               y="824.19476"
                               ry="2.5393662"
                               transform="matrix(1,0,-0.38858306,0.9214137,0,0)" />
                            <rect
                               transform="matrix(1,0,-0.38858306,0.9214137,0,0)"
                               ry="2.5393662"
                               y="824.19476"
                               x="18525.254"
                               height="6093.9351"
                               width="736"
                               id="rect4448"
                               style="opacity:1;fill:#2196f3;fill-opacity:1;stroke:none;stroke-width:0.41499999;stroke-linecap:square;stroke-linejoin:miter;stroke-miterlimit:4;stroke-dasharray:none;stroke-opacity:1" />
                            <rect
                               style="opacity:1;fill:#ffffff;fill-opacity:1;stroke:none;stroke-width:0.41499999;stroke-linecap:square;stroke-linejoin:miter;stroke-miterlimit:4;stroke-dasharray:none;stroke-opacity:1"
                               id="rect4450"
                               width="736"
                               height="6093.9351"
                               x="19254.83"
                               y="824.19476"
                               ry="2.5393662"
                               transform="matrix(1,0,-0.38858306,0.9214137,0,0)" />
                          </g>
                          <circle
                             style="opacity:1;fill:#fec828;fill-opacity:1;stroke:none;stroke-width:17.59000015;stroke-linecap:square;stroke-linejoin:miter;stroke-miterlimit:4;stroke-dasharray:none;stroke-opacity:1"
                             id="circle4498"
                             cx="15699.924"
                             cy="9008.0918"
                             r="2461.6326" />
                          <circle
                             r="1997.6326"
                             cy="9008.0918"
                             cx="15699.924"
                             id="circle4512"
                             style="opacity:1;fill:#d58701;fill-opacity:1;stroke:none;stroke-width:17.59000015;stroke-linecap:square;stroke-linejoin:miter;stroke-miterlimit:4;stroke-dasharray:none;stroke-opacity:1" />
                          <g
                             style="font-style:normal;font-weight:normal;font-size:2601.14379883px;line-height:125%;font-family:sans-serif;letter-spacing:0px;word-spacing:0px;fill:#fec828;fill-opacity:1;stroke:none;stroke-width:1px;stroke-linecap:butt;stroke-linejoin:miter;stroke-opacity:1"
                             id="text4514">
                            <path
                               d="m 15172.201,9740.2986 419.13,0 0,-1446.6322 -455.962,91.4465 0,-233.6966 453.422,-91.4464 256.558,0 0,1680.3287 419.13,0 0,215.9153 -1092.278,0 0,-215.9153 z"
                               style="font-style:normal;font-variant:normal;font-weight:normal;font-stretch:normal;font-family:'Noto Sans Cherokee';-inkscape-font-specification:'Noto Sans Cherokee';fill:#fec828;fill-opacity:1"
                               id="path4291" />
                          </g>
                        </g>
                      </g>
                    </g>
                  </g>
                </g>
              </g>
            </g>
          </g>
        </g>
      </g>
    </g>
    <g
       id="g5441"
       transform="matrix(0.70710678,0.70710678,-0.70710678,0.70710678,6192.5867,2227.8058)" />
  </g>
</svg>
